<?xml version="1.0" standalone="no"?>
<!DOCTYPE svg PUBLIC "-//W3C//DTD SVG 20010904//EN"
 "http://www.w3.org/TR/2001/REC-SVG-20010904/DTD/svg10.dtd">
<svg version="1.0" xmlns="http://www.w3.org/2000/svg"
 width="743.000000pt" height="406.000000pt" viewBox="0 0 743.000000 406.000000"
 preserveAspectRatio="xMidYMid meet">

<g transform="translate(0.000000,406.000000) scale(0.100000,-0.100000)"
fill="#000000" stroke="none">
<path d="M4401 3543 c-80 -39 -231 -204 -231 -252 0 -16 32 -78 85 -160 47
-74 85 -142 85 -151 0 -10 -23 -140 -50 -289 -33 -177 -48 -284 -44 -308 3
-23 -3 -75 -14 -128 -11 -49 -23 -124 -27 -165 -3 -41 -15 -128 -26 -192 -12
-74 -18 -153 -17 -214 l3 -95 -31 -27 c-17 -15 -54 -39 -83 -54 -35 -19 -51
-34 -51 -48 0 -20 45 -58 113 -95 36 -19 37 -21 37 -78 0 -32 -9 -95 -21 -140
-28 -110 -25 -284 7 -337 25 -43 63 -63 101 -54 37 10 109 86 155 163 l37 63
-30 41 c-46 63 -51 98 -39 265 6 81 13 155 16 165 4 12 16 17 41 17 20 0 79
19 132 41 53 23 175 73 271 111 218 88 281 119 333 167 23 21 67 54 97 73 65
41 130 110 159 166 11 22 31 76 43 119 20 68 23 100 22 253 -1 160 -3 182 -27
263 -29 94 -63 167 -107 232 -125 182 -324 381 -481 482 -65 41 -314 153 -342
153 -12 1 -33 7 -47 15 -31 18 -28 18 -69 -2z m181 -396 c78 -37 111 -60 210
-150 136 -125 201 -197 243 -270 17 -29 42 -69 58 -88 15 -20 27 -43 27 -51 0
-8 12 -48 26 -89 20 -55 28 -101 31 -182 9 -188 -28 -263 -194 -392 -125 -97
-438 -258 -505 -259 l-43 -1 -3 45 c-5 59 11 160 55 349 22 98 33 165 29 186
-4 19 0 50 9 76 29 79 133 453 140 500 5 37 2 57 -14 95 -24 54 -83 135 -149
206 -39 42 -48 68 -22 68 5 0 51 -19 102 -43z"/>
<path d="M5215 1790 c-11 -4 -50 -37 -87 -73 -64 -61 -68 -67 -68 -109 0 -55
13 -68 65 -68 31 0 53 8 83 30 36 26 44 40 66 110 31 96 30 85 10 104 -17 17
-38 19 -69 6z"/>
<path d="M7140 1466 c-44 -15 -117 -65 -185 -125 -29 -25 -84 -73 -124 -106
-39 -33 -78 -69 -86 -81 -7 -11 -36 -35 -64 -53 -50 -33 -67 -58 -62 -97 1
-15 -28 -49 -106 -122 -156 -147 -158 -147 -173 -107 -13 34 3 72 64 155 78
106 93 208 45 318 -14 33 -28 47 -61 62 -74 33 -82 30 -185 -79 -52 -55 -116
-114 -142 -130 -50 -33 -78 -71 -66 -91 10 -17 -241 -260 -269 -260 -3 0 -11
11 -16 25 -13 34 3 72 64 155 78 106 93 208 45 318 -14 33 -28 47 -61 62 -74
33 -82 30 -185 -79 -52 -55 -115 -113 -141 -130 -53 -34 -76 -64 -68 -89 12
-38 -105 -82 -132 -49 -11 14 -37 103 -47 162 -14 89 -25 115 -55 130 -16 8
-35 15 -43 15 -13 0 -213 -195 -229 -224 -4 -7 0 -32 9 -55 l16 -42 26 24 c14
14 39 33 55 43 28 17 28 17 47 -7 11 -13 37 -61 59 -106 40 -84 44 -87 118
-98 51 -8 99 13 187 83 44 36 59 55 60 74 0 19 20 44 79 97 111 101 138 103
172 16 21 -55 16 -72 -46 -170 -65 -102 -74 -138 -59 -214 l12 -58 -109 -121
c-135 -150 -176 -214 -182 -288 -4 -47 -1 -59 18 -79 66 -70 230 -19 366 115
104 102 136 208 95 320 -12 33 -21 70 -19 82 2 13 58 70 143 145 90 79 142
132 145 147 6 30 161 173 196 182 31 8 49 -8 70 -61 21 -55 16 -72 -46 -170
-65 -102 -74 -138 -59 -214 l12 -58 -109 -121 c-135 -150 -176 -214 -182 -288
-4 -47 -1 -59 18 -79 66 -70 230 -19 366 115 104 102 136 212 95 320 -12 30
-21 65 -21 77 0 15 32 50 102 112 56 50 105 91 109 91 4 0 5 -9 2 -19 -3 -11
0 -35 7 -55 8 -26 19 -38 45 -46 30 -10 40 -8 97 21 35 18 94 61 133 99 91 87
152 133 165 125 5 -3 10 -20 10 -37 0 -44 28 -97 61 -113 67 -35 151 -10 227
67 l43 44 -16 37 c-8 20 -18 37 -22 37 -4 0 -22 -14 -39 -31 -26 -25 -38 -30
-59 -25 -37 9 -59 65 -52 129 16 129 -47 137 -177 22 -156 -139 -202 -175
-219 -175 -18 0 -18 1 0 32 10 17 109 124 221 236 164 167 202 210 202 232 0
20 -6 29 -22 34 -29 7 -26 8 -68 -8z m-1492 -1004 c3 -45 0 -68 -16 -99 -42
-80 -168 -168 -216 -150 -41 16 -11 80 106 224 99 121 119 125 126 25z m630 0
c3 -45 0 -68 -16 -99 -42 -80 -168 -168 -216 -150 -41 16 -11 80 106 224 99
121 119 125 126 25z"/>
</g>
</svg>
